Coordinates
version=1
nRows=10
nColumns=63
inDegrees=yes

Units are S.I. units (second, meters, Newtons, ...)
If the header above contains a line with 'inDegrees', this indicates whether rotational values are in degrees (yes) or radians (no).

endheader
time	pelvis_tilt	pelvis_list	pelvis_rotation	pelvis_tx	pelvis_ty	pelvis_tz	hip_flexion_r	hip_adduction_r	hip_rotation_r	knee_angle_r	knee_angle_r_beta	ankle_angle_r	subtalar_angle_r	mtp_angle_r	hip_flexion_l	hip_adduction_l	hip_rotation_l	knee_angle_l	knee_angle_l_beta	ankle_angle_l	subtalar_angle_l	mtp_angle_l	L5_S1_Flex_Ext	L5_S1_Lat_Bending	L5_S1_axial_rotation	L4_L5_Flex_Ext	L4_L5_Lat_Bending	L4_L5_axial_rotation	L3_L4_Flex_Ext	L3_L4_Lat_Bending	L3_L4_axial_rotation	L2_L3_Flex_Ext	L2_L3_Lat_Bending	L2_L3_axial_rotation	L1_L2_Flex_Ext	L1_L2_Lat_Bending	L1_L2_axial_rotation	L1_T12_Flex_Ext	L1_T12_Lat_Bending	L1_T12_axial_rotation	Abs_r3	Abs_r2	Abs_r1	Abs_t1	Abs_t2	neck_flexion	neck_bending	neck_rotation	arm_flex_r	arm_add_r	arm_rot_r	elbow_flex_r	pro_sup_r	wrist_flex_r	wrist_dev_r	arm_flex_l	arm_add_l	arm_rot_l	elbow_flex_l	pro_sup_l	wrist_flex_l	wrist_dev_l
      0.00000000	     -3.24617838	     -3.69888517	     73.10378320	      0.21089989	      0.97663456	      0.48304276	      4.34456118	      0.85711843	      5.21578538	     10.14491881	      0.17706224	     21.99259556	    -13.13662062	      0.00000000	      0.85750336	     -1.48800724	      2.38999313	      0.82975767	      0.01448200	     31.94648438	      0.50723939	      0.00000000	      0.18135690	      0.19248218	      0.88411369	      0.33679789	      0.25600130	      0.93937080	      0.29795125	      0.46800117	      0.93937080	      0.20727280	      0.46800117	      0.77359948	      0.16840802	      0.39250966	      0.71834237	      0.10362733	      0.29815490	      0.66308527	      1.29541418	      2.17739692	      4.91717511	      0.00000000	      0.00000000	     25.31225006	     -3.83935872	     -8.96371652	     11.61605273	     -7.49857580	     33.97455157	     45.41715997	     42.36977219	     -5.15618073	     22.45057717	     20.97084368	     -5.43466125	     52.01446750	     42.52564018	     75.41064484	      1.61260567	     16.13491690
      0.01666667	     -3.84715940	     -3.99057518	     71.45299913	      0.21091197	      0.97628727	      0.48730345	      5.58137647	      0.55118277	      8.36087019	     10.95050996	      0.19112245	     21.34351195	    -15.31918648	      0.00000000	      1.52934934	     -0.93173026	      2.66340119	      0.78615391	      0.01372097	     30.70257583	     -0.48971627	      0.00000000	      0.21232743	      0.13794153	      1.13768013	      0.39431326	      0.18346223	      1.20878513	      0.34883273	      0.33539102	      1.20878513	      0.24266902	      0.33539102	      0.99547011	      0.19716725	      0.28129036	      0.92436510	      0.12132389	      0.21367142	      0.85326009	      1.51663357	      1.56042212	      6.32743556	      0.00000000	      0.00000000	     24.87369128	     -4.50744643	    -10.66142406	     12.55020650	     -7.02620198	     37.43142989	     43.32604495	     41.65888592	     -4.89566756	     22.18648885	     22.19285503	     -6.06712353	     56.76691909	     41.36021436	     84.62046448	      2.18851762	     14.16278184
      0.03333333	     -4.35731610	     -4.08200420	     70.22593007	      0.21063552	      0.97597030	      0.49073412	      6.50341612	      0.19000479	      9.92746890	     11.70782503	      0.20434009	     21.43205959	    -15.70834039	      0.00000000	      1.96668254	     -0.42291227	      2.82549586	      0.73470259	      0.01282298	     29.96971000	     -1.41235045	      0.00000000	      0.21656337	      0.09369026	      1.27602135	      0.40217983	      0.12460804	      1.35577269	      0.35579196	      0.22779849	      1.35577269	      0.24751028	      0.22779849	      1.11651869	      0.20110075	      0.19105317	      1.03676735	      0.12374431	      0.14512621	      0.95701602	      1.54689049	      1.05984291	      7.09684797	      0.00000000	      0.00000000	     24.58189084	     -4.85384308	    -11.39618740	     13.70930625	     -6.75022943	     41.20095419	     41.57912237	     41.49158200	     -4.24916617	     21.85345959	     23.51560719	     -6.63263243	     61.52616364	     40.28535667	     87.47893123	      2.11172149	     12.11251699
      0.05000000	     -4.83761153	     -4.13306740	     69.39810848	      0.21014779	      0.97555779	      0.49346316	      7.29984412	     -0.18478664	     10.82937444	     12.42559937	      0.21686762	     21.80495885	    -15.68522513	      0.00000000	      2.36221665	      0.05846368	      2.80521786	      0.72021360	      0.01257010	     29.65991476	     -1.98410562	      0.00000000	      0.21833883	      0.05228989	      1.34245288	      0.40547704	      0.06954556	      1.42635619	      0.35870886	      0.12713765	      1.42635619	      0.24953945	      0.12713765	      1.17464627	      0.20274944	      0.10662955	      1.09074297	      0.12475881	      0.08099705	      1.00683966	      1.55957243	      0.59151375	      7.46632019	      0.00000000	      0.00000000	     24.37430870	     -5.07614983	    -11.69462548	     14.76393762	     -6.54143908	     44.34118183	     40.31916837	     42.29026084	     -3.54432707	     21.87518669	     24.57247387	     -7.12084112	     65.42008762	     39.58067417	     88.13299105	      0.96887378	     10.04432084
      0.06666667	     -5.08644682	     -4.12410629	     68.64014726	      0.20970244	      0.97548711	      0.49563166	      7.77013433	     -0.36482460	     11.64147193	     12.80941568	      0.22356648	     21.92981658	    -15.64859766	      0.00000000	      2.56617534	      0.33161081	      2.83378040	      0.70327962	      0.01227454	     29.51493119	     -2.93088701	      0.00000000	      0.20747728	      0.03666768	      1.44807748	      0.38530606	      0.04876802	      1.53858232	      0.34086443	      0.08915381	      1.53858232	      0.23712579	      0.08915381	      1.26706779	      0.19266341	      0.07477274	      1.17656295	      0.11855252	      0.05679824	      1.08605811	      1.48198949	      0.41479217	      8.05377249	      0.00000000	      0.00000000	     24.21403243	     -5.17534801	    -11.77546163	     15.53279854	     -6.57759505	     46.79244783	     39.19396240	     42.92949761	     -1.86648549	     20.37932028	     25.63810960	     -7.05434640	     69.73052835	     38.07298159	     88.17189387	     -2.66669220	      5.46668881
      0.08333333	     -5.31562314	     -4.17103331	     68.55018311	      0.20888431	      0.97520248	      0.49681876	      8.16326816	     -0.57620827	     11.79592093	     13.15493920	      0.22959700	     22.20608418	    -15.66346376	      0.00000000	      2.83266553	      0.57820092	      2.84049714	      0.76267674	      0.01331122	     29.78490280	     -3.14869742	      0.00000000	      0.21078167	      0.02085468	      1.43080592	      0.39144264	      0.02773672	      1.52023129	      0.34629320	      0.05070607	      1.52023129	      0.24090237	      0.05070607	      1.25195518	      0.19573186	      0.04252686	      1.16252981	      0.12044065	      0.03230390	      1.07310444	      1.50559238	      0.23591232	      7.95771328	      0.00000000	      0.00000000	     24.16424873	     -5.31908802	    -11.71647458	     15.71766728	     -6.47507883	     47.36375432	     38.89558156	     43.25749728	     -1.73367127	     20.43808717	     25.72763809	     -6.97996098	     70.01948206	     37.52506449	     88.22599266	     -3.24700250	      4.77191196
      0.10000000	     -5.36681431	     -4.12436777	     68.21297135	      0.20848458	      0.97525214	      0.49787071	      8.37464380	     -0.61641901	     12.00752845	     13.41519562	      0.23413933	     22.35381500	    -15.55171124	      0.00000000	      2.78276906	      0.68045704	      4.95409507	      0.67967087	      0.01186249	     28.95724392	     -6.64586823	      0.00000000	      0.19823714	      0.02523515	      1.45558919	      0.36814619	      0.03356276	      1.54656351	      0.32568379	      0.06135675	      1.54656351	      0.22656522	      0.06135675	      1.27364054	      0.18408301	      0.05145953	      1.18266622	      0.11327270	      0.03908925	      1.09169189	      1.41598805	      0.28546512	      8.09555039	      0.00000000	      0.00000000	     24.00052389	     -5.27839029	    -11.25457398	     16.16182367	     -6.65987926	     48.66426306	     38.41719677	     44.34638631	     -0.30474163	     19.63371748	     26.25806293	     -6.86479527	     72.62564581	     36.36102386	     87.88936289	     -6.51884289	      0.27410772
      0.11666667	     -5.33430452	     -4.13187397	     68.03667749	      0.20810726	      0.97530151	      0.49826696	      8.48880519	     -0.56470027	     12.32632017	     13.51774327	      0.23592913	     22.44697726	    -15.72063814	      0.00000000	      2.77746605	      0.64408436	      2.37201686	      0.78236886	      0.01365491	     29.61975784	     -3.33176479	      0.00000000	      0.19800399	      0.03666608	      1.47757241	      0.36771321	      0.04876589	      1.56992068	      0.32530076	      0.08914991	      1.56992068	      0.22629876	      0.08914991	      1.29287586	      0.18386651	      0.07476947	      1.20052758	      0.11313948	      0.05679576	      1.10817931	      1.41432271	      0.41477406	      8.21781447	      0.00000000	      0.00000000	     23.97310802	     -5.15001107	    -10.95680656	     16.24173633	     -6.88530327	     49.10330791	     38.33310660	     45.07916571	      0.44083205	     19.58359687	     26.31894804	     -6.71134123	     72.92983952	     36.00307448	     87.89476510	     -6.37500748	     -0.39168502
      0.13333333	     -5.13020063	     -4.11030542	     68.33592708	      0.20732919	      0.97553316	      0.49795369	      8.37495959	     -0.45779383	     11.97145847	     13.48932746	      0.23543318	     22.60612209	    -15.60706953	      0.00000000	      2.56118100	      0.53226148	      6.86401983	      0.69537510	      0.01213659	     28.01906644	     -9.25661109	      0.00000000	      0.19555039	      0.06390778	      1.44268091	      0.36315662	      0.08499735	      1.53284847	      0.32126973	      0.15538538	      1.53284847	      0.22349454	      0.15538538	      1.26234580	      0.18158809	      0.13032075	      1.17217824	      0.11173749	      0.09899315	      1.08201068	      1.39679686	      0.72293760	      8.02375843	      0.00000000	      0.00000000	     23.84739869	     -5.21199121	    -10.91486542	     16.05457278	     -7.19785310	     49.02561441	     38.50491921	     45.60218957	      0.75743362	     20.00137481	     26.64634667	     -6.44291592	     74.50552771	     35.72950907	     87.89613794	     -6.44756065	     -0.42101618
      0.15000000	     -4.85834410	     -4.07077474	     68.56114398	      0.20672017	      0.97588892	      0.49740327	      8.15759578	     -0.27044326	     11.83119019	     13.34526754	      0.23291886	     22.59370555	    -15.72680736	      0.00000000	      2.32926803	      0.31623166	      7.14740031	      0.72948478	      0.01273191	     27.64608461	     -9.31141164	      0.00000000	      0.19605958	      0.09953298	      1.41494947	      0.36410225	      0.13237886	      1.50338381	      0.32210628	      0.24200448	      1.50338381	      0.22407649	      0.24200448	      1.23808079	      0.18206093	      0.20296764	      1.14964645	      0.11202844	      0.15417658	      1.06121210	      1.40043398	      1.12593692	      7.86952447	      0.00000000	      0.00000000	     23.64111070	     -5.25557015	    -10.75279109	     15.88824674	     -7.52187072	     49.41362397	     38.54775890	     45.63211553	      0.75452400	     20.08090393	     26.87064317	     -6.15215544	     75.89476583	     35.62850550	     88.11363959	     -5.81775975	      0.28570971
